<svg width="24" height="30" viewBox="0 0 24 30" fill="none" xmlns="http://www.w3.org/2000/svg">
<path d="M20.0455 16.1018C20.012 12.4683 23.0969 10.7005 23.238 10.6182C21.4909 8.13461 18.7828 7.79527 17.8312 7.76821C15.5568 7.53484 13.3506 9.09513 12.192 9.09513C11.0103 9.09513 9.22612 7.79076 7.30322 7.82909C4.82876 7.86629 2.51388 9.26311 1.24428 11.4322C-1.37587 15.8549 0.578254 22.3542 3.08855 25.9292C4.34428 27.68 5.81161 29.6349 7.7322 29.5661C9.61117 29.4906 10.313 28.3981 12.5805 28.3981C14.8272 28.3981 15.4863 29.5661 17.445 29.5221C19.4616 29.4906 20.7312 27.7634 21.943 25.9968C23.3941 23.9901 23.9769 22.0138 24 21.9123C23.9526 21.8965 20.0837 20.4569 20.0455 16.1018Z" fill="#FF9100"/>
<path d="M16.3454 5.41649C17.356 4.18427 18.0474 2.50786 17.8555 0.806641C16.3928 0.869774 14.5635 1.7931 13.5102 2.99827C12.5782 4.06026 11.7457 5.80093 11.9607 7.43789C13.6038 7.55739 15.2908 6.62956 16.3454 5.41649Z" fill="#FF9100"/>
</svg>
