<svg width="23" height="28" viewBox="0 0 23 28" fill="none" xmlns="http://www.w3.org/2000/svg">
<path fill-rule="evenodd" clip-rule="evenodd" d="M15.8305 0.472656C16.1011 1.96061 15.4247 3.44857 14.6131 4.53072C13.8015 5.61287 12.3135 6.55975 10.8256 6.42448C10.555 4.93653 11.2314 3.58384 12.043 2.50169C12.9899 1.41954 14.4778 0.607925 15.8305 0.472656ZM20.1591 24.0094C20.8355 22.9273 21.2413 22.2509 21.7824 21.0335C17.589 19.4103 16.9127 13.4585 21.106 11.2942C19.8886 9.67093 18.1301 8.85932 16.3716 8.85932C15.1542 8.85932 14.3426 9.12986 13.531 9.40039C12.8546 9.67093 12.3135 9.8062 11.6372 9.8062C10.8256 9.8062 10.2845 9.53566 9.4729 9.26513C8.66128 8.99459 7.84967 8.72405 6.90279 8.72405C5.00903 8.72405 2.98 9.8062 1.76258 11.8352C0.00408239 14.5406 0.27462 19.8161 3.11526 24.1447C4.33268 25.7679 5.68537 27.5264 7.44386 27.5264C8.25548 27.5264 8.66128 27.2559 9.20236 27.1206C9.8787 26.8501 10.555 26.5795 11.6372 26.5795C12.8546 26.5795 13.3957 26.8501 14.072 27.1206C14.6131 27.3911 15.0189 27.5264 15.8305 27.5264C17.7243 27.5264 19.077 25.4974 20.1591 24.0094Z" stroke="#FFF1DD" stroke-width="0.869585" stroke-miterlimit="10" stroke-linecap="round" stroke-linejoin="round"/>
</svg>
