<svg width="20" height="20" viewBox="0 0 20 20" fill="none" xmlns="http://www.w3.org/2000/svg">
<path d="M17.4016 5.39961V8.51961C16.1593 7.88501 14.7479 7.66033 13.37 7.87782C11.9921 8.09532 10.7185 8.74381 9.73216 9.7302C8.74577 10.7166 8.09728 11.9902 7.87978 13.3681C7.66228 14.746 7.88696 16.1574 8.52156 17.3996H3.60156C2.80591 17.3996 2.04285 17.0835 1.48024 16.5209C0.917633 15.9583 0.601562 15.1953 0.601562 14.3996V5.39961H17.4016ZM14.4016 0.599609C15.1972 0.599609 15.9603 0.91568 16.5229 1.47829C17.0855 2.0409 17.4016 2.80396 17.4016 3.59961V4.19961H0.601562V3.59961C0.601562 2.80396 0.917633 2.0409 1.48024 1.47829C2.04285 0.91568 2.80591 0.599609 3.60156 0.599609H14.4016ZM19.8016 14.3996C19.8016 15.8318 19.2326 17.2053 18.2199 18.218C17.2072 19.2307 15.8337 19.7996 14.4016 19.7996C12.9694 19.7996 11.5959 19.2307 10.5832 18.218C9.57049 17.2053 9.00156 15.8318 9.00156 14.3996C9.00156 12.9674 9.57049 11.5939 10.5832 10.5812C11.5959 9.56854 12.9694 8.99961 14.4016 8.99961C15.8337 8.99961 17.2072 9.56854 18.2199 10.5812C19.2326 11.5939 19.8016 12.9674 19.8016 14.3996ZM15.0016 11.9996C15.0016 11.8405 14.9383 11.6879 14.8258 11.5753C14.7133 11.4628 14.5607 11.3996 14.4016 11.3996C14.2424 11.3996 14.0898 11.4628 13.9773 11.5753C13.8648 11.6879 13.8016 11.8405 13.8016 11.9996V13.7996H12.0016C11.8424 13.7996 11.6898 13.8628 11.5773 13.9753C11.4648 14.0879 11.4016 14.2405 11.4016 14.3996C11.4016 14.5587 11.4648 14.7114 11.5773 14.8239C11.6898 14.9364 11.8424 14.9996 12.0016 14.9996H13.8016V16.7996C13.8016 16.9587 13.8648 17.1114 13.9773 17.2239C14.0898 17.3364 14.2424 17.3996 14.4016 17.3996C14.5607 17.3996 14.7133 17.3364 14.8258 17.2239C14.9383 17.1114 15.0016 16.9587 15.0016 16.7996V14.9996H16.8016C16.9607 14.9996 17.1133 14.9364 17.2258 14.8239C17.3384 14.7114 17.4016 14.5587 17.4016 14.3996C17.4016 14.2405 17.3384 14.0879 17.2258 13.9753C17.1133 13.8628 16.9607 13.7996 16.8016 13.7996H15.0016V11.9996Z" fill="#0E9545"/>
</svg>
