<svg width="295" height="92" viewBox="0 0 295 92" fill="none" xmlns="http://www.w3.org/2000/svg">
<path d="M167.086 2.75806C137.982 -1.78272 108.883 0.826754 84.1981 6.25488C59.8746 11.6128 38.4203 19.5417 21.4462 29.4485C12.8334 34.4796 5.11688 40.1778 1.78894 46.8984C-1.30389 53.1164 -0.467982 60.2278 6.22832 66.6108C12.9246 72.9937 23.9957 77.4523 35.7575 80.895C49.6021 84.9529 64.6262 87.658 79.6661 89.3445C109.362 92.6702 139.691 92.4895 168.084 90.5404C196.476 88.5913 222.25 84.6233 246.361 78.6761C268.534 73.2146 290.941 65.2098 294.259 51.7334C295.778 45.5609 292.957 38.8976 284.597 33.2997C276.237 27.7019 264.518 24.0001 252.619 21.0865C223.219 13.891 191.051 10.8238 160.428 10.0531C129.805 9.28235 97.3014 10.986 66.6365 13.214C59.2086 13.75 51.8102 14.3302 44.4125 14.9022C43.4775 14.9716 41.7687 15.3572 42.5672 15.9897C43.3656 16.6222 45.8047 16.533 46.8249 16.4558C75.8863 14.2292 105.064 12.0226 135.059 11.627C165.054 11.2314 195.104 12.6842 224.74 17.6494C248.648 21.6533 278.864 28.4463 286.274 41.9858C289.664 48.1805 287.881 54.4578 282.898 59.6524C277.632 65.1474 268.558 69.3747 258.594 72.7051C248.629 76.0354 236.808 78.856 225.102 81.1946C213.395 83.5332 200.711 85.5173 187.895 86.9613C162.091 89.8731 134.662 90.9412 107.006 89.6907C92.3211 89.0276 77.4401 87.6124 63.0159 84.9848C49.9181 82.599 36.7279 79.266 25.8942 74.4531C15.3667 69.7866 8.54919 63.778 6.91474 57.2354C5.28028 50.6927 8.84764 44.1116 14.9351 38.6755C21.1531 33.1128 29.7809 28.2725 38.8843 23.9166C47.9876 19.5607 57.9276 15.7918 68.7282 12.5383C90.1568 6.07128 115.673 1.11441 143.101 2.10319C149.795 2.33992 156.57 2.95512 163.201 3.99185C164.648 4.21307 166.414 4.27753 167.568 3.86839C168.425 3.56068 168.466 2.97247 167.086 2.75806Z" fill="#FF9100"/>
</svg>
