<svg width="456" height="570" viewBox="0 0 456 570" fill="none" xmlns="http://www.w3.org/2000/svg">
<g opacity="0.05">
<path d="M288.528 0C310.52 0 332.298 4.35809 352.616 12.8255C372.935 21.2928 391.397 33.7036 406.948 49.3493C422.499 64.9949 434.835 83.569 443.251 104.011C451.667 124.453 455.999 146.363 455.999 168.489C455.999 190.615 451.667 212.525 443.251 232.967C434.835 253.409 422.499 271.983 406.948 287.629C391.397 303.274 372.935 315.685 352.616 324.152C332.298 332.62 310.52 336.978 288.528 336.978H144.293C141.269 336.978 138.275 336.379 135.481 335.214C132.687 334.05 130.148 332.344 128.01 330.192C125.872 328.041 124.176 325.487 123.018 322.676C121.861 319.866 121.266 316.853 121.266 313.811V168.489C121.266 123.803 138.91 80.9471 170.317 49.3493C201.724 17.7515 244.321 0 288.737 0L288.528 0Z" fill="#FF9100"/>
<path d="M144.61 357.744H227.377C241.311 357.744 255.11 360.489 267.984 365.821C280.857 371.154 292.555 378.969 302.408 388.823C312.262 398.676 320.078 410.373 325.41 423.247C330.743 436.12 333.488 449.918 333.488 463.853C333.488 491.994 322.308 518.983 302.408 538.882C282.509 558.782 255.519 569.961 227.377 569.961C199.234 569.961 172.244 558.782 152.345 538.882C132.445 518.983 121.266 491.994 121.266 463.853V381.088C121.266 374.897 123.725 368.959 128.103 364.581C132.481 360.204 138.419 357.744 144.61 357.744Z" fill="#FF9100"/>
<path d="M48.2318 394.161C74.8694 394.161 96.4635 372.436 96.4635 345.636C96.4635 318.837 74.8694 297.111 48.2318 297.111C21.5941 297.111 0 318.837 0 345.636C0 372.436 21.5941 394.161 48.2318 394.161Z" fill="white"/>
</g>
</svg>
