<svg width="26" height="28" viewBox="0 0 26 28" fill="none" xmlns="http://www.w3.org/2000/svg">
<path d="M0.639436 27.8138C0.213125 27.601 0 27.0687 0 26.5365C0 26.43 0 26.2171 0 26.1106C0 18.2333 0 10.3559 0 2.58501C0 2.1592 0.106563 1.83989 0.213125 1.41408C0.319749 1.20114 0.532874 0.988265 0.746061 0.775391C5.3288 5.35274 9.80497 9.9301 14.2811 14.5075C9.69841 18.7655 5.22224 23.2365 0.639436 27.8138Z" fill="#FF9100"/>
<path d="M18.757 9.82371C17.478 11.1011 16.0926 12.3785 14.8137 13.7624C10.5506 9.3979 6.18102 5.03342 1.91797 0.668937C1.91797 0.668937 1.91797 0.5625 2.02453 0.5625C7.56651 3.64955 13.1084 6.73666 18.757 9.82371Z" fill="#FF9100"/>
<path d="M1.91797 27.8131C6.18102 23.5551 10.5506 19.2971 14.8137 15.0391C15.986 16.21 17.2649 17.381 18.6504 18.6584C13.1084 21.7455 7.56651 24.8325 2.02453 27.8131H1.91797Z" fill="#FF9100"/>
<path d="M19.3975 18.2318C18.012 16.9545 16.7332 15.677 15.3477 14.3997C16.7332 13.0158 18.1186 11.6319 19.5041 10.248C19.9304 10.4609 20.3567 10.6739 20.783 10.9932C21.8488 11.6319 23.0211 12.1642 24.0869 12.8028C24.4066 12.9093 24.6198 13.1222 24.8329 13.4415C25.2592 13.9738 25.2592 14.5061 24.8329 15.0383C24.6198 15.2512 24.4066 15.4641 24.0869 15.5706C22.5948 16.5286 20.9962 17.3803 19.3975 18.2318Z" fill="#FF9100"/>
</svg>
