<svg width="24" height="17" viewBox="0 0 24 17" fill="none" xmlns="http://www.w3.org/2000/svg">
<path d="M7.2 8.59922C9.52125 8.59922 11.4 6.72047 11.4 4.39922C11.4 2.07797 9.52125 0.199219 7.2 0.199219C4.87875 0.199219 3 2.07797 3 4.39922C3 6.72047 4.87875 8.59922 7.2 8.59922ZM10.08 9.79922H9.76875C8.98875 10.1742 8.1225 10.3992 7.2 10.3992C6.2775 10.3992 5.415 10.1742 4.63125 9.79922H4.32C1.935 9.79922 0 11.7342 0 14.1192V15.1992C0 16.193 0.80625 16.9992 1.8 16.9992H12.6C13.5938 16.9992 14.4 16.193 14.4 15.1992V14.1192C14.4 11.7342 12.465 9.79922 10.08 9.79922ZM18 8.59922C19.9875 8.59922 21.6 6.98672 21.6 4.99922C21.6 3.01172 19.9875 1.39922 18 1.39922C16.0125 1.39922 14.4 3.01172 14.4 4.99922C14.4 6.98672 16.0125 8.59922 18 8.59922ZM19.8 9.79922H19.6575C19.1363 9.97922 18.585 10.0992 18 10.0992C17.415 10.0992 16.8638 9.97922 16.3425 9.79922H16.2C15.435 9.79922 14.73 10.0205 14.1112 10.3767C15.0262 11.363 15.6 12.6717 15.6 14.1192V15.5592C15.6 15.6417 15.5813 15.7205 15.5775 15.7992H22.2C23.1938 15.7992 24 14.993 24 13.9992C24 11.678 22.1213 9.79922 19.8 9.79922Z" fill="#6750A3"/>
</svg>
