<svg width="18" height="16" viewBox="0 0 18 16" fill="none" xmlns="http://www.w3.org/2000/svg">
<path fill-rule="evenodd" clip-rule="evenodd" d="M11.2626 15.0472C10.549 14.8887 10.0991 14.1817 10.2577 13.4681L10.4618 12.5494H5.49694L5.16523 14.0423C5.00669 14.7558 4.2997 15.2058 3.58614 15.0472C2.87258 14.8887 2.42265 14.1817 2.58119 13.4681L2.78533 12.5494H1.32353C0.592565 12.5494 0 11.9568 0 11.2258C0 10.4949 0.592564 9.90229 1.32353 9.90229H3.37348L4.22303 6.07876H2.61765C1.88668 6.07876 1.29412 5.4862 1.29412 4.75523C1.29412 4.02427 1.88668 3.43171 2.61765 3.43171H4.81118L5.17104 1.81213C5.32959 1.09856 6.03657 0.648636 6.75013 0.807183C7.4637 0.965729 7.91363 1.67271 7.75508 2.38628L7.5228 3.43171H12.4877L12.8475 1.81213C13.0061 1.09856 13.713 0.648636 14.4266 0.807183C15.1402 0.965729 15.5901 1.67271 15.4316 2.38628L15.1993 3.43171H16.6765C17.4074 3.43171 18 4.02427 18 4.75523C18 5.4862 17.4074 6.07876 16.6765 6.07876H14.6111L13.7616 9.90229H15.3824C16.1133 9.90229 16.7059 10.4949 16.7059 11.2258C16.7059 11.9568 16.1133 12.5494 15.3824 12.5494H13.1734L12.8417 14.0423C12.6832 14.7558 11.9762 15.2058 11.2626 15.0472ZM6.93465 6.07876L6.0851 9.90229H11.05L11.8995 6.07876H6.93465Z" fill="#6750A3"/>
</svg>
