<svg width="24" height="24" viewBox="0 0 24 24" fill="none" xmlns="http://www.w3.org/2000/svg">
<path d="M3.66763 14.1952C3.40962 14.269 3.13519 14.1188 3.11565 13.8512C3.09699 13.5957 3.11993 13.3378 3.1846 13.0876C3.29002 12.6799 3.50251 12.3078 3.80006 12.0098C4.09762 11.7117 4.46942 11.4986 4.87698 11.3926C5.12699 11.3275 5.38487 11.3042 5.6404 11.3224C5.90808 11.3415 6.05864 11.6157 5.98526 11.8738C5.91188 12.132 5.63913 12.2725 5.37147 12.2919C5.28748 12.298 5.20389 12.3117 5.12175 12.3331C4.88183 12.3955 4.66296 12.5209 4.48779 12.6964C4.31263 12.8718 4.18754 13.0909 4.12548 13.3309C4.10423 13.4131 4.09064 13.4967 4.08468 13.5807C4.0657 13.8484 3.92565 14.1214 3.66763 14.1952Z" fill="#4D000F"/>
<path d="M16.9723 14.1952C16.7143 14.269 16.4399 14.1188 16.4203 13.8512C16.4017 13.5957 16.4246 13.3378 16.4893 13.0876C16.5947 12.6799 16.8072 12.3078 17.1048 12.0098C17.4023 11.7117 17.7741 11.4986 18.1817 11.3926C18.4317 11.3275 18.6896 11.3042 18.9451 11.3224C19.2128 11.3415 19.3633 11.6157 19.2899 11.8738C19.2166 12.132 18.9438 12.2725 18.6762 12.2919C18.5922 12.298 18.5086 12.3117 18.4264 12.3331C18.1865 12.3955 17.9676 12.5209 17.7925 12.6964C17.6173 12.8718 17.4922 13.0909 17.4302 13.3309C17.4089 13.4131 17.3953 13.4967 17.3894 13.5807C17.3704 13.8484 17.2303 14.1214 16.9723 14.1952Z" fill="#4D000F"/>
<path fill-rule="evenodd" clip-rule="evenodd" d="M7.32657 6.25981C7.78431 5.77202 8.41679 5.09801 9.20247 5.09801C10.3217 5.09801 10.6917 5.63598 11.0055 6.40369C11.6273 6.09285 12.2599 6.03557 12.933 6.40369C14.4869 3.86559 16.1703 5.59946 16.9407 6.39287C17.095 6.55182 17.2127 6.67303 17.2853 6.71457C17.3645 6.75985 17.522 6.77879 17.7288 6.80367C18.085 6.84653 18.5876 6.90698 19.0884 7.14985C19.6372 7.41597 20.1851 7.89364 20.6177 8.27083C20.8214 8.44841 20.9996 8.60372 21.1402 8.70421C21.5649 9.00757 22.9464 10.0715 23.5651 11.6265C24.2146 13.2589 24.0624 15.4134 22.7568 16.9737C20.2076 20.0203 14.4252 19.5229 13.306 14.2379C12.4978 14.7354 11.4408 14.611 10.6946 14.2379C9.40848 19.8338 3.72353 19.7716 1.30596 17.098C-0.629117 14.9581 -0.434881 10.8804 2.86043 8.70421C4.93857 6.90954 5.90453 6.83686 6.43959 6.79661C6.60892 6.78387 6.73509 6.77437 6.83971 6.71457C6.9694 6.64044 7.13224 6.46691 7.32657 6.25981ZM5.34749 17.2846C7.40783 17.2846 9.07806 15.6143 9.07806 13.554C9.07806 11.4937 7.40783 9.82342 5.34749 9.82342C3.28716 9.82342 1.61692 11.4937 1.61692 13.554C1.61692 15.6143 3.28716 17.2846 5.34749 17.2846ZM22.3838 13.554C22.3838 15.6143 20.7135 17.2846 18.6532 17.2846C16.5929 17.2846 14.9226 15.6143 14.9226 13.554C14.9226 11.4937 16.5929 9.82342 18.6532 9.82342C20.7135 9.82342 22.3838 11.4937 22.3838 13.554ZM12.0625 13.1809C12.7493 13.1809 13.306 12.6242 13.306 11.9374C13.306 11.2506 12.7493 10.6939 12.0625 10.6939C11.3757 10.6939 10.819 11.2506 10.819 11.9374C10.819 12.6242 11.3757 13.1809 12.0625 13.1809Z" fill="#4D000F"/>
</svg>
