<svg width="24" height="25" viewBox="0 0 24 25" fill="none" xmlns="http://www.w3.org/2000/svg">
<path d="M13.5125 18.8649L13.4821 18.8953L16.7031 22.1163L23 15.8194L20.3979 13.2173L15.4101 18.2052C14.8918 18.7235 14.1881 18.9434 13.5125 18.8649Z" fill="#0E9545"/>
<path d="M7.91649 13.7284C7.42292 14.3043 6.69018 14.6693 5.8722 14.6693C4.84349 14.6693 3.94958 14.0921 3.49669 13.2439L1.37374 15.3668C1.14105 15.5995 1.14105 15.9768 1.37374 16.2095L6.82798 21.6637C7.06067 21.8964 7.43794 21.8964 7.67063 21.6637L11.7612 17.5731L7.91649 13.7284Z" fill="#0E9545"/>
<path d="M3.93519 12.0848C3.38431 11.5339 3.38431 10.6408 3.93519 10.0899C4.48606 9.53902 5.37922 9.53902 5.9301 10.0899L6.85761 11.0174C7.40849 11.5683 7.40849 12.4615 6.85762 13.0123C6.30674 13.5632 5.41359 13.5632 4.86271 13.0123L3.93519 12.0848Z" fill="#0E9545"/>
<path d="M5.18127 9.41085C4.65328 8.88286 4.65328 8.02682 5.18127 7.49884C5.70926 6.97085 6.5653 6.97085 7.09328 7.49884L8.77394 9.1795C9.30193 9.70749 9.30193 10.5635 8.77394 11.0915C8.24595 11.6195 7.38992 11.6195 6.86193 11.0915L5.18127 9.41085Z" fill="#0E9545"/>
<path d="M6.3539 6.83917C5.82592 6.31118 5.82592 5.45514 6.3539 4.92715C6.88189 4.39916 7.73793 4.39916 8.26592 4.92715L10.6272 7.2884C11.1552 7.81639 11.1552 8.67243 10.6272 9.20042C10.0992 9.72841 9.24314 9.72841 8.71516 9.20042L6.3539 6.83917Z" fill="#0E9545"/>
<path d="M7.91507 4.65939C7.3666 4.11093 7.3666 3.22169 7.91507 2.67322C8.46354 2.12475 9.35278 2.12475 9.90125 2.67322L12.5458 5.31773C13.0942 5.8662 13.0942 6.75544 12.5458 7.3039C11.9973 7.85237 11.108 7.85237 10.5596 7.3039L7.91507 4.65939Z" fill="#0E9545"/>
<path d="M11.9511 2.97821L10.7947 1.82185L12.2454 1.08599C12.5398 0.959711 12.876 0.960313 13.0863 1.17014L13.4228 1.50648L11.9511 2.97821Z" fill="#0E9545"/>
<path d="M12.802 4.08932C13.6681 4.5365 14.2603 5.44014 14.2603 6.48208C14.2603 7.7243 13.4186 8.76994 12.2745 9.07986C12.0294 9.98456 11.3244 10.7001 10.4259 10.96C10.1761 11.8996 9.43081 12.6373 8.48678 12.8761C8.34759 13.3815 8.06467 13.8274 7.68473 14.167L7.86747 14.301L11.0422 17.5178C11.8644 18.34 14.2988 17.8985 15.2659 16.9314L19.7442 12.4531C20.7511 11.4462 20.0408 9.84605 19.0316 9.52844C19.4731 8.56354 18.9264 7.47026 18.1065 7.15265C18.3798 6.12468 18.1065 5.26267 17.0342 4.81891C17.8542 2.25578 14.9948 1.89675 14.0467 2.84464L12.802 4.08932Z" fill="#0E9545"/>
</svg>
